<svg width="96" height="96" viewBox="0 0 96 96" xmlns="http://www.w3.org/2000/svg">
  <rect width="96" height="96" rx="22" fill="#E8A598"/>
  <!-- 왼쪽 숟가락 -->
  <ellipse cx="14" cy="24" rx="6" ry="7" fill="#FAF6F2"/>
  <rect x="11" y="30" width="6" height="26" rx="3" fill="#FAF6F2"/>
  <!-- 오른쪽 포크 -->
  <rect x="76" y="16" width="4.5" height="14" rx="2.2" fill="#FAF6F2"/>
  <rect x="72" y="16" width="3" height="10" rx="1.5" fill="#FAF6F2"/>
  <rect x="81" y="16" width="3" height="10" rx="1.5" fill="#FAF6F2"/>
  <rect x="74" y="29" width="6" height="22" rx="3" fill="#FAF6F2"/>
  <!-- 얼굴 -->
  <circle cx="48" cy="50" r="28" fill="#FADDD8"/>
  <!-- 눈 -->
  <circle cx="39" cy="44" r="3.5" fill="#3A2520"/>
  <circle cx="57" cy="44" r="3.5" fill="#3A2520"/>
  <!-- 눈 하이라이트 -->
  <circle cx="40.5" cy="42.5" r="1.3" fill="#fff"/>
  <circle cx="58.5" cy="42.5" r="1.3" fill="#fff"/>
  <!-- 볼 홍조 -->
  <ellipse cx="33" cy="52" rx="6" ry="4" fill="#E8A598" opacity=".45"/>
  <ellipse cx="63" cy="52" rx="6" ry="4" fill="#E8A598" opacity=".45"/>
  <!-- 웃는 입 -->
  <path d="M39 57 Q48 66 57 57" stroke="#C08070" stroke-width="2.8" fill="none" stroke-linecap="round"/>
</svg>
